<svg width="17" height="17" viewBox="0 0 17 17" fill="none" xmlns="http://www.w3.org/2000/svg">
<path d="M8.50017 0.583496C6.9344 0.583496 5.40379 1.0478 4.1019 1.9177C2.80001 2.78759 1.78531 4.024 1.18612 5.47059C0.586926 6.91717 0.43015 8.50894 0.735616 10.0446C1.04108 11.5803 1.79507 12.9909 2.90224 14.0981C4.0094 15.2053 5.42002 15.9592 6.9557 16.2647C8.49138 16.5702 10.0832 16.4134 11.5297 15.8142C12.9763 15.215 14.2127 14.2003 15.0826 12.8984C15.9525 11.5965 16.4168 10.0659 16.4168 8.50016C16.4168 7.46053 16.2121 6.43108 15.8142 5.47059C15.4164 4.51009 14.8332 3.63736 14.0981 2.90223C13.363 2.1671 12.4902 1.58397 11.5297 1.18612C10.5692 0.788267 9.5398 0.583496 8.50017 0.583496ZM11.6668 9.29183H8.50017C8.2902 9.29183 8.08884 9.20842 7.94037 9.05996C7.79191 8.91149 7.7085 8.71013 7.7085 8.50016V5.3335C7.7085 5.12353 7.79191 4.92217 7.94037 4.7737C8.08884 4.62524 8.2902 4.54183 8.50017 4.54183C8.71013 4.54183 8.91149 4.62524 9.05996 4.7737C9.20843 4.92217 9.29183 5.12353 9.29183 5.3335V7.7085H11.6668C11.8768 7.7085 12.0782 7.7919 12.2266 7.94037C12.3751 8.08884 12.4585 8.2902 12.4585 8.50016C12.4585 8.71013 12.3751 8.91149 12.2266 9.05996C12.0782 9.20842 11.8768 9.29183 11.6668 9.29183Z" fill="#00A0E3"/>
</svg>
