<svg width="21" height="21" viewBox="0 0 21 21" fill="none" xmlns="http://www.w3.org/2000/svg">
<g clip-path="url(#clip0_6302_137)">
<path d="M3.89834 17.3281C3.72072 17.1298 3.50845 16.9653 3.27188 16.8427C3.02833 16.7151 2.76275 16.6346 2.48916 16.6055C2.45024 16.5997 2.41097 16.5964 2.37161 16.5959H2.23332C1.79473 16.5904 1.36474 16.7173 0.999765 16.9599C0.643848 17.1954 0.362332 17.5268 0.188 17.9156C0.12869 18.0535 0.0823932 18.1966 0.0497091 18.343C-0.0175463 18.6409 -0.0175463 18.9499 0.0497091 19.2477C0.0823338 19.3946 0.128631 19.5382 0.188 19.6765C0.365254 20.0616 0.646285 20.3901 0.999765 20.6253C1.36343 20.8698 1.79333 20.9978 2.23194 20.9921C2.40213 20.993 2.5719 20.975 2.73808 20.9383C2.89343 20.9014 3.04487 20.8497 3.19029 20.7839L3.25528 20.748C3.28876 20.728 3.32393 20.7109 3.36039 20.697L3.45719 20.6597L3.50697 20.7356C3.55241 20.8138 3.6178 20.8786 3.69651 20.9234C3.77521 20.9682 3.86441 20.9914 3.95503 20.9907C4.09215 20.9901 4.22362 20.9361 4.32151 20.8404C4.37341 20.796 4.4152 20.741 4.44406 20.6792C4.47292 20.6173 4.48819 20.5501 4.48884 20.4819V18.794C4.48684 18.5219 4.43238 18.2527 4.32842 18.0011C4.22483 17.7538 4.07934 17.5262 3.89834 17.3281ZM3.32581 19.2587C3.26472 19.3977 3.17793 19.524 3.06998 19.631C2.96125 19.7378 2.83249 19.8221 2.69106 19.8792C2.54399 19.939 2.3866 19.9695 2.22779 19.9689C2.0752 19.9686 1.92438 19.9362 1.78525 19.8737C1.64681 19.8127 1.52001 19.7283 1.41049 19.6241C1.29964 19.518 1.20959 19.3922 1.14498 19.2532C1.07706 19.1091 1.0421 18.9518 1.04263 18.7926C1.04288 18.6376 1.07587 18.4845 1.13944 18.343C1.20172 18.2025 1.28991 18.0748 1.39943 17.9666C1.50817 17.859 1.63563 17.7721 1.77558 17.7101C1.91861 17.6477 2.07304 17.6154 2.22917 17.6154C2.3853 17.6154 2.53974 17.6477 2.68277 17.7101C2.82488 17.7712 2.95431 17.8582 3.06444 17.9666C3.17393 18.0748 3.26212 18.2025 3.32443 18.343C3.388 18.4845 3.42099 18.6376 3.42123 18.7926C3.42306 18.9543 3.39054 19.1146 3.32581 19.2628V19.2587Z" fill="white"/>
<path d="M7.57558 16.6067C7.28322 16.6176 6.99518 16.6807 6.72509 16.7928C6.46545 16.8999 6.22778 17.0537 6.02396 17.2465C5.82664 17.4395 5.66759 17.6678 5.55515 17.9195C5.43624 18.1762 5.37535 18.4558 5.37676 18.7386V20.4954C5.37439 20.5638 5.38645 20.6319 5.41218 20.6953C5.43791 20.7588 5.47673 20.8161 5.52611 20.8636C5.57243 20.9093 5.62758 20.945 5.68821 20.9687C5.74883 20.9924 5.81367 21.0036 5.87875 21.0015C6.01699 21.0091 6.15266 20.9621 6.25628 20.8705C6.30481 20.8288 6.34413 20.7774 6.37174 20.7197C6.39935 20.6621 6.41467 20.5993 6.4167 20.5354V18.8034C6.41273 18.6426 6.44288 18.4829 6.5052 18.3346C6.56441 18.1959 6.64933 18.0695 6.75551 17.9622C6.86458 17.854 6.99407 17.7685 7.13648 17.7105C7.2789 17.6525 7.43142 17.6232 7.58525 17.6244C7.72576 17.6224 7.86025 17.5672 7.96141 17.4699C8.00948 17.4252 8.0476 17.3709 8.07333 17.3106C8.09906 17.2503 8.11181 17.1852 8.11076 17.1197C8.1016 16.9816 8.04208 16.8516 7.94343 16.7542C7.89567 16.7056 7.83832 16.6674 7.77501 16.642C7.71169 16.6166 7.64379 16.6046 7.57558 16.6067Z" fill="white"/>
<path d="M12.8292 19.8223C12.8016 19.7642 12.7614 19.7129 12.7117 19.672C12.6099 19.5794 12.476 19.5299 12.3383 19.5341H12.3286C12.1903 19.5316 12.0561 19.5808 11.9525 19.672C11.8524 19.7676 11.7332 19.841 11.6026 19.8871C11.4513 19.9381 11.2921 19.9619 11.1324 19.9575C10.9688 19.9583 10.8069 19.9255 10.6567 19.8609C10.5133 19.7992 10.3839 19.7092 10.2764 19.5962C10.1784 19.4839 10.1024 19.3544 10.0523 19.2142C9.99979 19.068 9.97722 18.9128 9.98597 18.7577V17.6256H11.1614C11.2287 17.6247 11.2949 17.6099 11.3561 17.5821C11.4173 17.5544 11.472 17.5142 11.5168 17.4642C11.5664 17.4181 11.6061 17.3626 11.6338 17.3009C11.6615 17.2392 11.6766 17.1726 11.6781 17.1051C11.6797 17.0375 11.6677 16.9703 11.6428 16.9074C11.618 16.8445 11.5808 16.7872 11.5334 16.7389C11.4855 16.69 11.4273 16.6522 11.3629 16.6284C11.2986 16.6045 11.2298 16.5952 11.1614 16.601H9.98597V15.6136C9.98853 15.5481 9.97603 15.4828 9.94943 15.4228C9.92282 15.3629 9.88281 15.3097 9.83246 15.2675C9.71885 15.1747 9.5755 15.1257 9.42865 15.1296C9.28389 15.1256 9.14268 15.1747 9.03176 15.2675C8.98141 15.3097 8.94139 15.3629 8.91479 15.4228C8.88818 15.4828 8.87569 15.5481 8.87826 15.6136V18.7495C8.87279 19.0667 8.93599 19.3814 9.06356 19.672C9.18205 19.9395 9.35378 20.1801 9.56833 20.3794C9.7845 20.5776 10.0372 20.7322 10.3123 20.8345C10.6021 20.9419 10.909 20.9961 11.2181 20.9945C11.5029 20.9968 11.7852 20.9415 12.0479 20.8317C12.3118 20.7187 12.5527 20.5584 12.7587 20.3587C12.8029 20.3152 12.8361 20.2618 12.8555 20.2029C12.8767 20.1404 12.8861 20.0744 12.8831 20.0085C12.8779 19.9434 12.8595 19.8801 12.8292 19.8223Z" fill="white"/>
<path d="M20.0079 20.1203L18.672 18.7937L20.0065 17.4671C20.0525 17.4191 20.0884 17.3624 20.1121 17.3004C20.1359 17.2384 20.147 17.1722 20.1448 17.1058C20.1473 17.0405 20.1363 16.9753 20.1125 16.9143C20.0888 16.8533 20.0527 16.7979 20.0065 16.7514C19.9106 16.6535 19.78 16.597 19.6428 16.5942H19.6372C19.5737 16.5946 19.5108 16.6078 19.4526 16.6332C19.3943 16.6586 19.3419 16.6955 19.2984 16.7418L17.9335 18.0698L16.5976 16.7542C16.4971 16.6621 16.3686 16.6063 16.2325 16.5956C16.1641 16.5929 16.0959 16.6055 16.033 16.6324C15.97 16.6594 15.9139 16.7001 15.8688 16.7514C15.7791 16.8524 15.7247 16.9797 15.7139 17.1141C15.7094 17.1764 15.7196 17.2389 15.7436 17.2966C15.7676 17.3543 15.8048 17.4056 15.8522 17.4465L17.2171 18.7923L15.8522 20.1382C15.8046 20.1845 15.7675 20.2405 15.7437 20.3024C15.7198 20.3643 15.7096 20.4306 15.7139 20.4968C15.7182 20.6302 15.7743 20.7567 15.8702 20.8498C15.9171 20.899 15.9746 20.9369 16.0383 20.9608C16.102 20.9847 16.1703 20.9939 16.238 20.9877C16.3731 20.9842 16.5031 20.9356 16.6073 20.8498L17.9376 19.5287L19.2735 20.825C19.3214 20.8782 19.38 20.9207 19.4456 20.9497C19.5111 20.9787 19.5821 20.9936 19.6538 20.9932C19.7202 20.9959 19.7865 20.9851 19.8486 20.9614C19.9106 20.9377 19.9672 20.9016 20.0148 20.8553C20.0655 20.8082 20.1052 20.7505 20.1313 20.6865C20.1573 20.6224 20.169 20.5534 20.1655 20.4844C20.165 20.4162 20.1508 20.3489 20.1237 20.2864C20.0966 20.2239 20.0572 20.1674 20.0079 20.1203Z" fill="white"/>
<path d="M14.5897 16.7416C14.5566 16.7132 14.5204 16.6887 14.4818 16.6685C14.4065 16.6212 14.3191 16.5968 14.2301 16.5982C14.1411 16.5968 14.0537 16.6212 13.9784 16.6685C13.9398 16.6887 13.9036 16.7132 13.8705 16.7416C13.8213 16.782 13.7816 16.8327 13.7543 16.8902C13.7271 16.9476 13.7129 17.0104 13.7129 17.074V20.5118C13.7129 20.5795 13.728 20.6463 13.7569 20.7076C13.7858 20.7688 13.8279 20.823 13.8802 20.8662C13.975 20.9497 14.0981 20.994 14.2246 20.9903H14.2425C14.369 20.994 14.4921 20.9497 14.5869 20.8662C14.6392 20.823 14.6813 20.7688 14.7102 20.7076C14.7391 20.6463 14.7542 20.5795 14.7542 20.5118V17.074C14.7534 17.0098 14.7381 16.9467 14.7097 16.8892C14.6812 16.8317 14.6402 16.7813 14.5897 16.7416Z" fill="white"/>
<path d="M14.6172 15.2939C14.5731 15.2453 14.519 15.2066 14.4587 15.1805C14.3984 15.1543 14.3331 15.1413 14.2674 15.1422C14.1328 15.1394 14.0023 15.1888 13.9037 15.2801C13.8542 15.3229 13.8142 15.3756 13.7864 15.4347C13.7585 15.4939 13.7433 15.5582 13.7419 15.6235C13.7362 15.6941 13.7455 15.7652 13.7694 15.832C13.7932 15.8988 13.831 15.9598 13.8801 16.011C13.9854 16.106 14.1226 16.1581 14.2646 16.1571C14.3299 16.1577 14.3946 16.1445 14.4544 16.1183C14.5142 16.0922 14.5678 16.0537 14.6117 16.0055C14.7065 15.9104 14.7598 15.7817 14.7598 15.6476C14.7598 15.5135 14.7065 15.3848 14.6117 15.2898L14.6172 15.2939Z" fill="white"/>
</g>
<g clip-path="url(#clip1_6302_137)">
<path d="M10.0786 5.5791C8.56665 5.5791 7.19214 6.95133 7.19214 8.6437C7.19422 9.26625 7.3797 9.8726 7.72271 10.3783C8.4567 9.91698 9.25254 9.59102 10.0841 9.59102C10.9157 9.59102 11.7102 9.91698 12.4455 10.3783C12.7885 9.8726 12.974 9.26625 12.9761 8.6437C12.9706 6.95133 11.5947 5.5791 10.0786 5.5791Z" fill="white"/>
<path d="M10.0772 0C6.36598 0 3.35718 8.31924 3.35718 12.2031C3.35718 15.2168 5.17016 11.9805 7.71576 10.3783C7.35657 9.85162 7.17076 9.21459 7.1869 8.56519C7.20304 7.91579 7.42025 7.28999 7.8051 6.78403C7.6824 7.09469 7.61932 7.42809 7.61954 7.76481C7.61954 8.45487 7.87847 9.11666 8.33936 9.6046C8.80026 10.0925 9.42537 10.3667 10.0772 10.3667C10.729 10.3667 11.3541 10.0925 11.815 9.6046C12.2759 9.11666 12.5348 8.45487 12.5348 7.76481C12.535 7.42809 12.4719 7.09469 12.3492 6.78403C12.7341 7.28999 12.9513 7.91579 12.9675 8.56519C12.9836 9.21459 12.7978 9.85162 12.4386 10.3783C14.9856 11.979 16.7972 15.2168 16.7972 12.2031C16.7972 8.32069 13.7884 0 10.0772 0Z" fill="white"/>
</g>
<defs>
<clipPath id="clip0_6302_137">
<rect y="15.1201" width="20.16" height="5.88" fill="white"/>
</clipPath>
<clipPath id="clip1_6302_137">
<rect x="3.36011" width="13.44" height="13.44" fill="white"/>
</clipPath>
</defs>
</svg>
