<svg width="33" height="20" viewBox="0 0 33 20" fill="none" xmlns="http://www.w3.org/2000/svg">
<g id="Group 887">
<path id="Vector" opacity="0.5" d="M8.57143 0.5C10.7121 0.5 12.7651 1.35038 14.2788 2.86407C15.7925 4.37775 16.6429 6.43075 16.6429 8.57143C16.6429 11.8641 14.1205 15.4513 8.84286 19.4095C8.76455 19.4683 8.66931 19.5 8.57143 19.5C8.47355 19.5 8.3783 19.4683 8.3 19.4095C3.02233 15.4513 0.5 11.8641 0.5 8.57143C0.5 6.43075 1.35038 4.37775 2.86407 2.86407C4.37775 1.35038 6.43075 0.5 8.57143 0.5ZM8.57143 5.21429C7.68106 5.21429 6.82716 5.56798 6.19757 6.19757C5.56798 6.82716 5.21429 7.68106 5.21429 8.57143C5.21429 9.4618 5.56798 10.3157 6.19757 10.9453C6.82716 11.5749 7.68106 11.9286 8.57143 11.9286C9.4618 11.9286 10.3157 11.5749 10.9453 10.9453C11.5749 10.3157 11.9286 9.4618 11.9286 8.57143C11.9286 7.68106 11.5749 6.82716 10.9453 6.19757C10.3157 5.56798 9.4618 5.21429 8.57143 5.21429Z" fill="#00A0E3" stroke="#00A0E3"/>
<path id="Polygon 19" d="M29.933 12.25C29.7406 12.5833 29.2594 12.5833 29.067 12.25L26.9019 8.5C26.7095 8.16667 26.95 7.75 27.3349 7.75L31.6651 7.75C32.05 7.75 32.2905 8.16667 32.0981 8.5L29.933 12.25Z" fill="#F2F2F2"/>
</g>
</svg>
