<svg width="25" height="20" viewBox="0 0 25 20" fill="none" xmlns="http://www.w3.org/2000/svg">
<g id="Group 199">
<path id="&#239;&#131;&#160;" d="M24.9595 6.70321C24.9891 6.75876 25.0029 6.82225 24.9994 6.88602L24.5162 6.6246C24.5538 6.5759 24.6069 6.54371 24.6654 6.53419C24.7238 6.52467 24.7833 6.5385 24.8328 6.57303C24.8859 6.60246 24.93 6.64767 24.9595 6.70321ZM24.9595 6.70321L24.7576 6.81075L24.9595 6.70321ZM16.7965 13.3493C16.9904 13.1865 17.1656 13.0394 17.2899 12.9206L17.305 12.909C20.8025 10.2154 23.212 8.33879 24.4994 7.2866L24.4994 17.4995L24.4994 17.5015C24.5005 17.7681 24.4523 18.0314 24.3582 18.2761C24.264 18.5209 24.1262 18.7414 23.9541 18.9258C23.7822 19.1101 23.5796 19.2545 23.3588 19.3523C23.1382 19.4501 22.9031 19.4999 22.6664 19.4999L2.35064 19.4999L2.34683 19.5C2.10906 19.5018 1.87256 19.4533 1.65051 19.3563C1.42834 19.2593 1.22417 19.1153 1.05086 18.9309C0.87745 18.7463 0.738464 18.5252 0.643457 18.2794C0.548403 18.0335 0.499625 17.769 0.50071 17.5015V17.4995V7.25453C1.70357 8.22532 4.10017 10.0998 7.68503 12.8739C7.7874 12.9753 8.00014 13.1658 8.34655 13.4551C8.72263 13.7691 9.02855 14.0235 9.28854 14.1979C9.46296 14.3149 9.67458 14.4509 9.91071 14.6027C9.99709 14.6582 10.0868 14.7158 10.1791 14.7754L10.1791 14.7754L10.1831 14.778C10.5481 15.0086 10.9381 15.1923 11.3451 15.3251L11.3451 15.3251L11.3525 15.3274C11.7236 15.442 12.108 15.5023 12.495 15.5062V15.5062L12.5006 15.5062C12.8471 15.5058 13.1917 15.4552 13.5248 15.356C13.8332 15.2662 14.1349 15.1528 14.4275 15.0168L14.4275 15.0169L14.438 15.0117C14.75 14.8578 15.0505 14.6794 15.3372 14.4783L15.3372 14.4784L15.3459 14.472C15.4143 14.4218 15.4852 14.3706 15.5563 14.3193C15.7569 14.1745 15.959 14.0287 16.108 13.9015C16.1893 13.8321 16.2874 13.7554 16.406 13.6628L16.4078 13.6613C16.5239 13.5706 16.6554 13.4678 16.788 13.3564L16.7965 13.3493ZM13.2313 12.6022L13.215 12.6101L13.1994 12.6192C12.9829 12.7447 12.7455 12.8183 12.5033 12.8368C12.2573 12.815 12.0166 12.7404 11.7953 12.6159L11.7862 12.6108L11.7769 12.6061C11.4854 12.4578 11.2012 12.2933 10.9255 12.1133C10.7176 11.9747 10.4044 11.7314 9.97804 11.3723C9.74069 11.1604 9.48877 10.9672 9.22405 10.7945C5.26105 7.71059 2.44385 5.47861 0.769026 4.09604L0.769139 4.0959L0.758616 4.08768C0.678972 4.02543 0.611757 3.94085 0.565596 3.83923C0.519367 3.73746 0.496533 3.62354 0.500427 3.50788L0.50071 3.49947V3.49106V2.50049H0.500714L0.500706 2.49847C0.499625 2.23097 0.548403 1.96646 0.643457 1.72058C0.738464 1.47482 0.877449 1.25367 1.05086 1.06915C1.22417 0.884732 1.42834 0.74069 1.65051 0.643679C1.87256 0.546718 2.10906 0.498234 2.34683 0.500049L2.34683 0.500064H2.35064H22.6664C22.9031 0.500061 23.1382 0.549895 23.3588 0.647694C23.5796 0.745541 23.7822 0.88991 23.9541 1.07418C24.1262 1.25857 24.264 1.47912 24.3582 1.72393C24.4523 1.96863 24.5005 2.23193 24.4994 2.49849V2.50049V3.49106V3.49862L24.4996 3.50617C24.5032 3.62315 24.4809 3.73804 24.4357 3.84119C24.3907 3.94403 24.3251 4.0311 24.2466 4.09715C22.6548 5.41001 19.8325 7.64156 15.7759 10.7948C15.515 10.9659 15.2682 11.1594 15.0378 11.373C14.6058 11.7266 14.2904 11.9724 14.0856 12.1171C13.8102 12.2973 13.5249 12.4593 13.2313 12.6022Z" fill="#00A0E3" stroke="#00A0E3"/>
</g>
</svg>
