<svg width="26" height="27" viewBox="0 0 26 27" fill="none" xmlns="http://www.w3.org/2000/svg">
<path d="M23.3 14.1625C23.475 14.1625 23.6375 14.2375 23.775 14.375L25.375 15.975C25.65 16.2375 25.65 16.675 25.375 16.9375L24.125 18.1875L21.5625 15.625L22.8125 14.375C22.95 14.2375 23.125 14.1625 23.3 14.1625ZM20.8375 16.35L23.4 18.9125L15.825 26.5H13.25V23.925L20.8375 16.35ZM20.75 2.75C22.125 2.75 23.25 3.875 23.25 5.25V10.25L10.75 22.75V25.25H3.25C1.875 25.25 0.75 24.125 0.75 22.75V5.25C0.75 3.875 1.875 2.75 3.25 2.75H8.475C9 1.3 10.375 0.25 12 0.25C13.625 0.25 15 1.3 15.525 2.75H20.75ZM12 2.75C11.3125 2.75 10.75 3.3125 10.75 4C10.75 4.6875 11.3125 5.25 12 5.25C12.6875 5.25 13.25 4.6875 13.25 4C13.25 3.3125 12.6875 2.75 12 2.75Z" fill="#E3EEF4"/>
</svg>
