<svg width="25" height="25" viewBox="0 0 25 25" fill="none" xmlns="http://www.w3.org/2000/svg">
<path d="M20.9587 6.45817H19.7503V0.416504H5.25033V6.45817H4.04199C3.08058 6.45817 2.15855 6.84009 1.47873 7.51991C0.798911 8.19973 0.416992 9.12176 0.416992 10.0832V18.5415C0.416992 19.1824 0.671604 19.7971 1.12482 20.2503C1.57803 20.7036 2.19272 20.9582 2.83366 20.9582H5.25033V24.5832H19.7503V20.9582H22.167C22.8079 20.9582 23.4226 20.7036 23.8758 20.2503C24.329 19.7971 24.5837 19.1824 24.5837 18.5415V10.0832C24.5837 9.12176 24.2017 8.19973 23.5219 7.51991C22.8421 6.84009 21.9201 6.45817 20.9587 6.45817ZM7.66699 2.83317H17.3337V6.45817H7.66699V2.83317ZM7.66699 22.1665V17.3332H17.3337V22.1665H7.66699ZM20.9587 12.4998H16.1253V10.0832H20.9587V12.4998Z" fill="#E3EEF4"/>
</svg>
