<svg width="34" height="35" viewBox="0 0 34 35" fill="none" xmlns="http://www.w3.org/2000/svg">
<path d="M25.5474 17.023L10.7124 8.96418C10.5122 8.86344 10.2921 8.81869 10.072 8.83399C9.85185 8.84929 9.63875 8.92416 9.45206 9.05179C9.26538 9.17941 9.11104 9.35574 9.0031 9.56473C8.89515 9.77371 8.83703 10.0087 8.83403 10.2483V26.359C8.83216 26.605 8.88872 26.8473 8.99825 27.0626C9.10779 27.2779 9.26658 27.4588 9.45928 27.5879C9.65199 27.717 9.87209 27.7899 10.0983 27.7996C10.3245 27.8093 10.5492 27.7554 10.7507 27.6431L25.5474 19.5843C25.7665 19.4648 25.9508 19.2814 26.0796 19.0546C26.2084 18.8278 26.2766 18.5666 26.2766 18.3002C26.2766 18.0337 26.2084 17.7725 26.0796 17.5458C25.9508 17.319 25.7665 17.1356 25.5474 17.0161V17.023Z" fill="#F3F8FB"/>
<path d="M33.3839 17.8555C33.3839 26.9674 26.0521 34.3477 17.0157 34.3477C7.97921 34.3477 0.647461 26.9674 0.647461 17.8555C0.647461 8.74365 7.97921 1.36328 17.0157 1.36328C26.0521 1.36328 33.3839 8.74365 33.3839 17.8555Z" stroke="#F3F8FB"/>
</svg>
