<svg width="15" height="15" viewBox="0 0 15 15" fill="none" xmlns="http://www.w3.org/2000/svg">
<path d="M14.5722 10.5995L11.2909 9.19326C11.1508 9.13352 10.995 9.12093 10.847 9.15739C10.6991 9.19385 10.567 9.27738 10.4706 9.39541L9.01745 11.1708C6.73686 10.0956 4.90152 8.26021 3.82624 5.97963L5.60166 4.52647C5.71993 4.43028 5.80364 4.29818 5.84011 4.15016C5.87659 4.00215 5.86385 3.84628 5.80382 3.70615L4.39754 0.42484C4.33165 0.273785 4.21513 0.150453 4.06805 0.0761123C3.92097 0.00177107 3.75256 -0.0189204 3.59186 0.0176058L0.544932 0.720743C0.389998 0.756521 0.251766 0.843757 0.152796 0.968214C0.0538267 1.09267 -3.56904e-05 1.247 1.77431e-08 1.40601C1.77431e-08 8.92079 6.09093 15 13.594 15C13.7531 15.0001 13.9075 14.9463 14.032 14.8473C14.1565 14.7483 14.2438 14.6101 14.2796 14.4551L14.9827 11.4081C15.019 11.2467 14.9979 11.0776 14.9229 10.93C14.848 10.7824 14.724 10.6656 14.5722 10.5995Z" fill="#00A0E3"/>
</svg>
