<svg width="24" height="24" viewBox="0 0 24 24" fill="none" xmlns="http://www.w3.org/2000/svg">
<path d="M2.15504 17.9642L2.20926 17.7643L2.10622 17.5846C1.1444 15.9073 0.583622 13.9093 0.583622 11.9167C0.583622 5.61111 5.71004 0.5 12.0418 0.5C15.0863 0.5 17.9701 1.69694 20.1349 3.85417C22.2926 6.00443 23.418 8.87617 23.5 11.8401C23.4963 18.1426 18.3713 23.25 12.0418 23.25C10.1196 23.25 8.27526 22.7715 6.58677 21.8901L6.41548 21.8007L6.22857 21.8497L0.708657 23.2972L2.15504 17.9642ZM6.79766 12.644C7.06797 13.0533 9.03033 16.0127 12.0851 17.2885C12.5743 17.5309 13.0508 17.7005 13.4115 17.829C13.5547 17.88 13.6797 17.9245 13.78 17.9645L13.8115 17.977L13.8443 17.9852C14.5816 18.1688 15.3174 18.1704 15.8814 18.0775C16.2743 18.0199 16.781 17.7918 17.2079 17.5119C17.6267 17.2373 18.0963 16.8305 18.2798 16.3428C18.4218 15.9653 18.4947 15.607 18.5193 15.3004C18.543 15.0053 18.5248 14.7219 18.4533 14.5081L18.4158 14.3959L18.332 14.3125C18.2381 14.2188 18.1234 14.1496 18.0227 14.0938C17.922 14.0381 17.7932 13.9737 17.6406 13.8977C17.4592 13.7844 17.0157 13.5551 16.6132 13.3546C16.3913 13.244 16.1682 13.1354 15.9834 13.0487C15.8114 12.968 15.6411 12.8909 15.5444 12.8588C15.5378 12.8566 15.5306 12.8542 15.5228 12.8516C15.4158 12.8154 15.199 12.7422 14.9758 12.7625C14.8375 12.775 14.6927 12.8215 14.5599 12.9199C14.4311 13.0153 14.3385 13.141 14.2709 13.2758C14.2156 13.386 14.0621 13.5963 13.8714 13.8285C13.6888 14.051 13.5123 14.2454 13.445 14.3125C13.4365 14.3209 13.4293 14.3277 13.4234 14.3332C13.4069 14.3276 13.3834 14.3182 13.3519 14.3025C13.2939 14.2736 13.2238 14.2417 13.1424 14.2047C12.7122 14.009 11.9666 13.6698 11.0342 12.8746C10.208 12.1246 9.6731 11.307 9.50176 10.9876C9.51555 10.9734 9.5318 10.9572 9.55154 10.9375C9.59494 10.8942 9.63686 10.8426 9.66692 10.8048C9.68849 10.7777 9.71334 10.7457 9.73732 10.7148C9.74871 10.7002 9.75991 10.6857 9.77046 10.6722C9.84369 10.5784 9.91041 10.4965 9.96966 10.4375C10.1948 10.2132 10.309 9.98534 10.3922 9.81932C10.3942 9.81537 10.3962 9.81144 10.3981 9.80756C10.5525 9.49979 10.5525 9.16687 10.3981 8.8591L10.3617 8.7865L10.3485 8.77336C10.3481 8.77249 10.3476 8.7716 10.3472 8.77069C10.3274 8.7301 10.3 8.66999 10.2657 8.59145C10.1975 8.43554 10.1105 8.22647 10.0165 7.99762C9.95825 7.85562 9.89717 7.70567 9.83685 7.55759C9.70566 7.23553 9.57807 6.92233 9.49068 6.71913C9.34247 6.37449 9.14933 6.11817 8.87181 5.99246C8.73569 5.9308 8.61004 5.91535 8.51495 5.91292C8.46978 5.91177 8.42971 5.91359 8.40448 5.91482L8.39159 5.91545C8.37135 5.91644 8.36679 5.91666 8.36237 5.91666H8.36138H8.3604H8.35942H8.35843H8.35744H8.35645H8.35546H8.35447H8.35347H8.35247H8.35147H8.35047H8.34947H8.34846H8.34746H8.34645H8.34544H8.34442H8.34341H8.34239H8.34138H8.34036H8.33934H8.33831H8.33729H8.33626H8.33523H8.3342H8.33317H8.33214H8.3311H8.33007H8.32903H8.32799H8.32695H8.3259H8.32486H8.32381H8.32277H8.32172H8.32066H8.31961H8.31856H8.3175H8.31644H8.31538H8.31432H8.31326H8.3122H8.31113H8.31006H8.309H8.30793H8.30685H8.30578H8.30471H8.30363H8.30255H8.30147H8.30039H8.29931H8.29823H8.29714H8.29605H8.29497H8.29388H8.29279H8.29169H8.2906H8.28951H8.28841H8.28731H8.28621H8.28511H8.28401H8.28291H8.2818H8.2807H8.27959H8.27848H8.27737H8.27626H8.27515H8.27403H8.27292H8.2718H8.27069H8.26957H8.26845H8.26733H8.2662H8.26508H8.26395H8.26283H8.2617H8.26057H8.25944H8.25831H8.25718H8.25605H8.25491H8.25378H8.25264H8.2515H8.25036H8.24922H8.24808H8.24694H8.24579H8.24465H8.2435H8.24236H8.24121H8.24006H8.23891H8.23776H8.23661H8.23545H8.2343H8.23314H8.23199H8.23083H8.22967H8.22851H8.22735H8.22619H8.22503H8.22386H8.2227H8.22153H8.22037H8.2192H8.21803H8.21686H8.2157H8.21452H8.21335H8.21218H8.21101H8.20983H8.20866H8.20748H8.20631H8.20513H8.20395H8.20277H8.20159H8.20041H8.19923H8.19804H8.19686H8.19568H8.19449H8.19331H8.19212H8.19093H8.18974H8.18856H8.18737H8.18618H8.18499H8.18379H8.1826H8.18141H8.18021H8.17902H8.17783H8.17663H8.17543H8.17424H8.17304H8.17184H8.17064H8.16944H8.16824H8.16704H8.16584H8.16464H8.16344H8.16223H8.16103H8.15983H8.15862H8.15742H8.15621H8.155H8.1538H8.15259H8.15138H8.15017H8.14896H8.14775H8.14654H8.14533H8.14412H8.14291H8.1417H8.14049H8.13928H8.13806H8.13685H8.13563H8.13442H8.13321H8.13199H8.13078H8.12956H8.12834H8.12713H8.12591H8.12469H8.12348H8.12226H8.12104H8.11982H8.1186H8.11738H8.11616H8.11494H8.11372H8.1125H8.11128H8.11006H8.10884H8.10762H8.1064H8.10518H8.10396H8.10273H8.10151H8.10029H8.09907H8.09784H8.09662H8.0954H8.09417H8.09295H8.09173H8.0905H8.08928H8.08805H8.08683H8.08561H8.08438H8.08316H8.08193H8.08071H8.07948H8.07826H8.07703H8.07581H8.07458H8.07336H8.07213H8.07091H8.06968H8.06846H8.06723H8.06601H8.06478H8.06356H8.06233H8.06111H8.05989H8.05866H8.05744H8.05621H8.05499H8.05376H8.05254H8.05131H8.05009H8.04887H8.04764H8.04642H8.04519H8.04397H8.04275H8.04152H8.0403H8.03908H8.03786H8.03663H8.03541H8.03419H8.03297H8.03175H8.03053H8.02931H8.02808H8.02686H8.02564H8.02442H8.0232H8.02199H8.02077H8.01955H8.01833H8.01711H8.01589H8.01468H8.01346H8.01224H8.01102H8.00981H8.00859H8.00738H8.00616H8.00495H8.00373H8.00252H8.00131H8.00009H7.99888H7.99767H7.99646H7.99524H7.99403H7.99282H7.99161H7.9904H7.9892H7.98799H7.98678H7.98557H7.98436H7.98316H7.98195H7.98075H7.97954H7.97834H7.97713H7.97593H7.97473H7.97353H7.97233H7.97113H7.96992H7.96873H7.96753H7.96633H7.96513H7.96393H7.96274H7.96154H7.96035H7.95915H7.95796H7.95677H7.95557H7.95438H7.95319H7.952H7.95081H7.94962H7.94843H7.94725H7.94606H7.94488H7.94369H7.94251H7.94132H7.94014H7.93896H7.93778H7.9366H7.93542H7.93424H7.93306H7.93189H7.93071H7.92953H7.92836H7.92719H7.92601H7.92484H7.92367H7.9225H7.92133H7.92017H7.919H7.91783H7.91667H7.9155H7.91434H7.91318H7.91202H7.91086H7.9097H7.90854H7.90738H7.90623H7.90507H7.90392H7.90276H7.90161H7.90046H7.89931H7.89816H7.89701H7.89586H7.89472H7.89357H7.89243H7.89129H7.89015H7.88901H7.88787H7.88673H7.88559H7.88446H7.88332H7.88219H7.88106H7.87993H7.8788H7.87767H7.87654H7.87541H7.87429H7.87316H7.87204H7.87092H7.8698H7.86868H7.86756H7.86645H7.86533H7.86422H7.86311H7.862H7.86089H7.85978H7.85867H7.85756H7.85646H7.85536H7.85426H7.85315H7.85206H7.85096H7.84986H7.84877H7.84767H7.84658H7.84549H7.8444H7.84331H7.84223H7.84114H7.84006H7.83898H7.8379H7.83682H7.83574H7.83466H7.83359H7.83251H7.83144H7.83037H7.8293H7.82824H7.82717H7.82611H7.82505H7.82398H7.82293H7.82187H7.82081H7.81976H7.8187H7.81765H7.8166H7.81555H7.81451H7.81346H7.81242H7.81138H7.81034H7.8093H7.80826H7.80723H7.8062H7.80516H7.80413H7.80311H7.80208H7.80106H7.80003H7.79901H7.79799H7.79697H7.79596H7.79494H7.79393H7.79292H7.79191H7.79091H7.7899H7.7889H7.7879H7.7869H7.7859H7.7849H7.78391H7.78292H7.78193H7.78094H7.77995H7.77897H7.77798H7.777C7.77067 5.91666 7.76411 5.91665 7.75734 5.91664C7.50222 5.91624 6.94314 5.91536 6.54127 6.44933C6.52591 6.46973 6.49968 6.50084 6.46559 6.54126C6.33722 6.69347 6.09748 6.97775 5.90768 7.32001C5.64974 7.78514 5.43728 8.40972 5.43728 9.25C5.43728 10.1129 5.74711 10.9246 6.05819 11.5225C6.33824 12.0607 6.64577 12.475 6.79766 12.644ZM10.3644 8.80429C10.3641 8.80374 10.3636 8.80288 10.3629 8.80168C10.3679 8.8096 10.3685 8.81158 10.3644 8.80429Z" fill="#00A0E3" stroke="#00A0E3"/>
</svg>
