<svg width="31" height="21" viewBox="0 0 31 21" fill="none" xmlns="http://www.w3.org/2000/svg">
<g opacity="0.5">
<path d="M1.88579 15.0933L1.94001 14.8933L1.83697 14.7137C1.0367 13.318 0.57016 11.6554 0.57016 9.99822C0.57016 4.75251 4.83498 0.5 10.1032 0.5C12.6362 0.5 15.0353 1.49571 16.8366 3.29071C18.6308 5.07875 19.5678 7.46753 19.6363 9.9351C19.6326 15.1777 15.3692 19.4265 10.1032 19.4265C8.50412 19.4265 6.96941 19.0285 5.56363 18.2947L5.39233 18.2053L5.20542 18.2543L0.708657 19.4335L1.88579 15.0933ZM5.63933 10.6576C5.87702 11.0175 7.53122 13.502 10.1061 14.5785C10.5206 14.7836 10.9288 14.929 11.2316 15.0369C11.3496 15.0789 11.4517 15.1152 11.5318 15.1472L11.5632 15.1597L11.5961 15.1679C12.2257 15.3247 12.8539 15.3262 13.3371 15.2467C13.6827 15.1959 14.1188 14.998 14.4818 14.76C14.8366 14.5274 15.249 14.1742 15.4123 13.7401C15.5341 13.4163 15.5969 13.1083 15.6181 12.8437C15.6385 12.5905 15.6237 12.3406 15.5588 12.1469L15.5213 12.0348L15.4376 11.9513C15.3504 11.8644 15.2458 11.8018 15.1602 11.7545C15.0747 11.7071 14.9661 11.6528 14.8398 11.5899C14.6802 11.4909 14.3073 11.2984 13.9746 11.1326C13.788 11.0396 13.6002 10.9482 13.4444 10.8751C13.3015 10.808 13.1539 10.7411 13.0673 10.7123C13.0619 10.7105 13.0557 10.7084 13.049 10.7061C12.9604 10.6761 12.7629 10.6091 12.5576 10.6277C12.4285 10.6394 12.2926 10.6829 12.168 10.7753C12.0474 10.8646 11.9623 10.9811 11.9015 11.1024C11.8596 11.1858 11.7364 11.3559 11.5761 11.5512C11.4399 11.717 11.3087 11.8631 11.2439 11.9307C11.2421 11.9298 11.2402 11.9289 11.2383 11.9279C11.1885 11.9031 11.1287 11.8758 11.0596 11.8444C10.6984 11.68 10.0835 11.4002 9.31095 10.7415C8.66675 10.1565 8.23693 9.52243 8.07179 9.2326C8.11141 9.19295 8.14866 9.14691 8.17364 9.11552C8.19203 9.09241 8.21344 9.06483 8.23371 9.03872C8.2432 9.0265 8.25243 9.01461 8.26099 9.00364C8.32243 8.92491 8.3757 8.85983 8.42148 8.8142C8.61971 8.61666 8.72047 8.41563 8.79052 8.27587L8.79609 8.26476C8.93705 7.98382 8.93705 7.67773 8.79609 7.39679L8.75966 7.32419L8.74899 7.31355C8.73349 7.28126 8.71266 7.23535 8.68676 7.17609C8.62999 7.04618 8.55727 6.87149 8.47847 6.67953C8.42982 6.56103 8.37873 6.43562 8.3282 6.31158C8.21795 6.04092 8.11037 5.77684 8.03674 5.60563C7.90872 5.30795 7.73578 5.07175 7.47676 4.95442C7.25013 4.85176 6.97543 4.88366 7.01612 4.88366H7.0153H7.01448H7.01365H7.01282H7.01199H7.01116H7.01033H7.0095H7.00866H7.00782H7.00698H7.00614H7.0053H7.00446H7.00361H7.00277H7.00192H7.00107H7.00022H6.99937H6.99851H6.99766H6.9968H6.99594H6.99508H6.99422H6.99336H6.9925H6.99163H6.99076H6.98989H6.98903H6.98815H6.98728H6.98641H6.98553H6.98466H6.98378H6.9829H6.98202H6.98114H6.98025H6.97937H6.97848H6.97759H6.97671H6.97582H6.97492H6.97403H6.97314H6.97224H6.97134H6.97045H6.96955H6.96865H6.96775H6.96684H6.96594H6.96503H6.96413H6.96322H6.96231H6.9614H6.96049H6.95958H6.95866H6.95775H6.95683H6.95591H6.95499H6.95407H6.95315H6.95223H6.95131H6.95038H6.94946H6.94853H6.9476H6.94667H6.94574H6.94481H6.94388H6.94295H6.94201H6.94108H6.94014H6.9392H6.93826H6.93733H6.93638H6.93544H6.9345H6.93356H6.93261H6.93166H6.93072H6.92977H6.92882H6.92787H6.92692H6.92597H6.92501H6.92406H6.92311H6.92215H6.92119H6.92024H6.91928H6.91832H6.91736H6.9164H6.91543H6.91447H6.91351H6.91254H6.91158H6.91061H6.90964H6.90867H6.9077H6.90673H6.90576H6.90479H6.90382H6.90284H6.90187H6.9009H6.89992H6.89894H6.89796H6.89699H6.89601H6.89503H6.89405H6.89307H6.89208H6.8911H6.89012H6.88913H6.88815H6.88716H6.88617H6.88519H6.8842H6.88321H6.88222H6.88123H6.88024H6.87925H6.87826H6.87726H6.87627H6.87528H6.87428H6.87329H6.87229H6.87129H6.8703H6.8693H6.8683H6.8673H6.8663H6.8653H6.8643H6.8633H6.8623H6.86129H6.86029H6.85929H6.85828H6.85728H6.85627H6.85527H6.85426H6.85325H6.85224H6.85124H6.85023H6.84922H6.84821H6.8472H6.84619H6.84518H6.84417H6.84316H6.84214H6.84113H6.84012H6.83911H6.83809H6.83708H6.83606H6.83505H6.83403H6.83302H6.832H6.83098H6.82997H6.82895H6.82793H6.82691H6.82589H6.82488H6.82386H6.82284H6.82182H6.8208H6.81978H6.81876H6.81773H6.81671H6.81569H6.81467H6.81365H6.81263H6.8116H6.81058H6.80956H6.80853H6.80751H6.80649H6.80546H6.80444H6.80341H6.80239H6.80136H6.80034H6.79931H6.79829H6.79726H6.79624H6.79521H6.79419H6.79316H6.79213H6.79111H6.79008H6.78905H6.78803H6.787H6.78597H6.78495H6.78392H6.78289H6.78186H6.78084H6.77981H6.77878H6.77775H6.77673H6.7757H6.77467H6.77364H6.77262H6.77159H6.77056H6.76953H6.7685H6.76748H6.76645H6.76542H6.76439H6.76337H6.76234H6.76131H6.76028H6.75926H6.75823H6.7572H6.75617H6.75515H6.75412H6.75309H6.75207H6.75104H6.75001H6.74899H6.74796H6.74693H6.74591H6.74488H6.74386H6.74283H6.74181H6.74078H6.73976H6.73873H6.73771H6.73668H6.73566H6.73463H6.73361H6.73259H6.73156H6.73054H6.72952H6.72849H6.72747H6.72645H6.72543H6.72441H6.72339H6.72236H6.72134H6.72032H6.7193H6.71828H6.71726H6.71625H6.71523H6.71421H6.71319H6.71217H6.71115H6.71014H6.70912H6.70811H6.70709H6.70607H6.70506H6.70404H6.70303H6.70202H6.701H6.69999H6.69898H6.69796H6.69695H6.69594H6.69493H6.69392H6.69291H6.6919H6.69089H6.68988H6.68888H6.68787H6.68686H6.68586H6.68485H6.68384H6.68284H6.68183H6.68083H6.67983H6.67883H6.67782H6.67682H6.67582H6.67482H6.67382H6.67282H6.67182H6.67083H6.66983H6.66883H6.66784H6.66684H6.66584H6.66485H6.66386H6.66286H6.66187H6.66088H6.65989H6.6589H6.65791H6.65692H6.65593H6.65495H6.65396H6.65297H6.65199H6.651H6.65002H6.64904H6.64806H6.64707H6.64609H6.64511H6.64413H6.64316H6.64218H6.6412H6.64023H6.63925H6.63828H6.6373H6.63633H6.63536H6.63439H6.63342H6.63245H6.63148H6.63051H6.62954H6.62858H6.62761H6.62665H6.62569H6.62472H6.62376H6.6228H6.62184H6.62088H6.61993H6.61897H6.61801H6.61706H6.61611H6.61515H6.6142H6.61325H6.6123H6.61135H6.6104H6.60946H6.60851H6.60757H6.60662H6.60568H6.60474H6.6038H6.60286H6.60192H6.60098H6.60004H6.59911H6.59817H6.59724H6.59631H6.59538H6.59445H6.59352H6.59259H6.59166H6.59074H6.58981H6.58889H6.58797H6.58705H6.58613H6.58521H6.58429H6.58337H6.58246H6.58155H6.58063H6.57972H6.57881H6.5779H6.57699H6.57609H6.57518H6.57428H6.57337H6.57247H6.57157H6.57067H6.56978H6.56888H6.56798H6.56709H6.5662H6.56531H6.56442H6.56353H6.56264H6.56175H6.56087H6.55999H6.5591H6.55822H6.55734H6.55646H6.55559H6.55471H6.55384H6.55297H6.5521H6.55123H6.55036H6.54949H6.54863H6.54776H6.5469H6.54604H6.54518H6.54432H6.54346H6.54261H6.54175H6.5409H6.54005H6.5392H6.53835H6.53751H6.53666H6.53582H6.53498H6.53414H6.5333H6.53246H6.53163H6.53079H6.52996H6.52913H6.5283H6.52747H6.52664H6.52582H6.525C6.51921 4.88366 6.51318 4.88365 6.50689 4.88363C6.29087 4.88319 5.78552 4.88216 5.42389 5.36266C5.41342 5.37656 5.39413 5.39941 5.36831 5.42997C5.26335 5.55423 5.05065 5.80604 4.88622 6.10254C4.66362 6.50395 4.48145 7.04133 4.48145 7.76086C4.48145 8.503 4.74752 9.19732 5.01149 9.70463C5.24572 10.1548 5.50404 10.5058 5.63933 10.6576Z" fill="#00A0E3" stroke="#00A0E3"/>
<path d="M27.933 12.25C27.7406 12.5833 27.2594 12.5833 27.067 12.25L24.9019 8.5C24.7095 8.16667 24.95 7.75 25.3349 7.75L29.6651 7.75C30.05 7.75 30.2905 8.16667 30.0981 8.5L27.933 12.25Z" fill="#F2F2F2"/>
</g>
</svg>
